<svg aria-hidden="true" style="position: absolute; width: 0; height: 0; overflow: hidden;" version="1.1" xmlns="http://www.w3.org/2000/svg" xmlns:xlink="http://www.w3.org/1999/xlink">
<defs>
<symbol id="phone" viewBox="0 0 20 32">
<path  d="M17.005 0h-14.009c-1.655 0-3.002 1.347-3.002 3.002v26.017c0 1.655 1.347 3.002 3.002 3.002h14.009c1.655 0 3.002-1.347 3.002-3.002v-26.017c0-1.655-1.347-3.002-3.002-3.002zM2.995 2.001h14.009c0.553 0 1.001 0.448 1.001 1.001v0 21.014h-16.010v-21.014c0-0.553 0.448-1.001 1.001-1.001v0zM17.005 30.020h-14.009c-0.553 0-1.001-0.448-1.001-1.001v0-3.002h16.010v3.002c0 0.553-0.448 1.001-1.001 1.001v0z"></path>
<path d="M4.705 27.496c0.18 0.164 0.293 0.399 0.293 0.66s-0.113 0.497-0.292 0.66l-0.001 0.001c-0.186 0.17-0.435 0.275-0.708 0.275s-0.522-0.104-0.709-0.276l0.001 0.001c-0.18-0.164-0.293-0.399-0.293-0.66s0.113-0.497 0.292-0.66l0.001-0.001c0.186-0.17 0.435-0.275 0.708-0.275s0.522 0.104 0.709 0.276l-0.001-0.001z"></path>
</symbol>
<symbol id="letter" viewBox="0 0 43 32">
<path  d="M38.692-0.006h-34.689c-2.207 0-4.003 1.796-4.003 4.003v24.016c0 2.207 1.796 4.003 4.003 4.003h34.689c2.207 0 4.003-1.796 4.003-4.003v-24.016c0-2.207-1.796-4.003-4.003-4.003zM38.692 2.663c0.181 0 0.355 0.037 0.512 0.104l-17.857 15.477-17.857-15.477c0.151-0.065 0.327-0.104 0.512-0.104h34.689zM38.692 29.347h-34.689c-0.737 0-1.334-0.597-1.334-1.334v0-22.428l17.804 15.431c0.233 0.203 0.54 0.327 0.875 0.327s0.642-0.124 0.877-0.329l-0.002 0.001 17.804-15.431v22.428c0 0.737-0.597 1.334-1.334 1.334v0z"></path>
</symbol>
<symbol id="antenna" viewBox="0 0 32 32">
<path fill="#212121" style="fill: var(--color2, #212121)" d="M30.773 22.098l-8.443-8.505 0.937-4.616c0.225 0.090 0.485 0.144 0.758 0.146h0.007c0.008 0 0.017 0 0.026 0 1.192 0 2.159-0.967 2.159-2.159s-0.967-2.159-2.159-2.159c-1.192 0-2.159 0.967-2.159 2.159 0 0.259 0.046 0.508 0.13 0.739l-0.005-0.015-4.96 0.606-8.091-8.133c-0.096-0.098-0.229-0.159-0.376-0.16h-0c-0.14 0.001-0.274 0.057-0.373 0.155l-1.512 1.504c-0.096 0.097-0.156 0.23-0.156 0.377s0.060 0.281 0.156 0.377v0l0.814 0.825c-1.143 2.062-1.816 4.522-1.816 7.139 0 4.106 1.656 7.824 4.336 10.525l-0.001-0.001c0.043 0.041 0.092 0.074 0.146 0.097-0.032 0.164-0.051 0.353-0.052 0.546v6.188h-6.4c-1.472 0.001-2.666 1.194-2.667 2.666v1.067c0 0.295 0.239 0.534 0.534 0.534h24.534c0.294 0 0.533-0.239 0.533-0.534v-1.067c-0.002-1.472-1.195-2.665-2.666-2.666h-6.4v-2.742c1.003 0.21 2.024 0.317 3.049 0.32 2.58-0.003 5.005-0.663 7.117-1.822l-0.077 0.039 0.818 0.823c0.099 0.101 0.235 0.159 0.376 0.16 0.14-0.001 0.274-0.057 0.373-0.155l1.512-1.504c0.096-0.097 0.156-0.23 0.156-0.377s-0.060-0.281-0.156-0.377v0zM23.28 6.233c0.193-0.192 0.459-0.31 0.752-0.31 0.589 0 1.067 0.478 1.067 1.066s-0.477 1.066-1.067 1.066c-0 0-0 0-0 0h-0.004c-0.587-0.003-1.061-0.479-1.061-1.066 0-0.295 0.12-0.563 0.314-0.756l0-0h-0.002zM22.024 9.737l-0.598 2.946-1.175-1.183 1.774-1.763zM21.419 8.835l-1.92 1.909-1.486-1.493 3.406-0.416zM24.004 28.8c0.884 0 1.6 0.716 1.6 1.6v0 0.534h-23.466v-0.534c0-0.884 0.716-1.6 1.6-1.6v0h20.267zM16.538 26.666v1.067h-5.334v-1.067h5.334zM11.204 25.6v-4.053c0-1.294 1.196-2.346 2.667-2.346s2.667 1.053 2.667 2.346v4.053h-5.334zM17.604 23.904v-2.357c0-1.882-1.675-3.413-3.733-3.413-0.017-0-0.038-0-0.058-0-1.353 0-2.54 0.707-3.213 1.771l-0.009 0.016c-2.36-2.482-3.812-5.846-3.812-9.55 0-2.314 0.567-4.496 1.569-6.414l-0.036 0.077 18.602 18.709c-1.823 0.947-3.979 1.502-6.266 1.502-1.079 0-2.128-0.124-3.136-0.357l0.093 0.018zM28.893 23.22l-21.057-21.181 0.754-0.752 7.935 7.98c0.004 0 0.006 0.007 0.010 0.010l13.114 13.191-0.757 0.752z"></path>
<path fill="#2196f3" style="fill: var(--color3, #2196f3)" d="M13.876 20.267h-0.005c-0.001 0-0.002 0-0.002 0-0.884 0-1.6 0.716-1.6 1.6s0.715 1.599 1.597 1.6h0.005c0.001 0 0.001 0 0.002 0 0.884 0 1.6-0.716 1.6-1.6s-0.715-1.599-1.598-1.6h-0zM14.249 22.245c-0.096 0.096-0.229 0.155-0.376 0.155-0.295 0-0.534-0.239-0.534-0.534s0.238-0.533 0.532-0.533h0c0.293 0.001 0.531 0.239 0.531 0.533 0 0.148-0.060 0.282-0.157 0.378l-0 0h0.005z"></path>
</symbol>
<symbol id="clock" viewBox="0 0 32 32">
<path fill="#212121" style="fill: var(--color2, #212121)" d="M31.296 15.301c-0.001-8.452-6.855-15.303-15.308-15.301s-15.303 6.855-15.301 15.308c0.002 6.788 4.422 12.543 10.541 14.545l0.108 0.031c0.061 0.019 0.123 0.029 0.187 0.029 0.12 0 0.238-0.032 0.342-0.094 0.135-0.080 0.236-0.207 0.283-0.357l3.865-12.25c1.054-0.004 1.906-0.859 1.906-1.913 0-1.056-0.856-1.913-1.913-1.913-0.303 0-0.59 0.071-0.845 0.196l0.011-0.005-5.106-5.107c-0.114-0.11-0.271-0.179-0.443-0.179-0.352 0-0.638 0.286-0.638 0.638 0 0.172 0.068 0.328 0.179 0.443l-0-0 5.103 5.109c-0.121 0.241-0.191 0.525-0.191 0.826 0 0.602 0.283 1.137 0.723 1.48l0.004 0.003-3.682 11.673c-7.278-2.681-11.004-10.754-8.324-18.032s10.754-11.004 18.032-8.323c7.278 2.681 11.004 10.754 8.323 18.032-1.345 3.581-4.003 6.406-7.374 7.938l-0.088 0.036-0.398-1.874c-0.063-0.291-0.318-0.506-0.624-0.506-0.164 0-0.313 0.062-0.426 0.163l0.001-0.001-3.837 3.426c-0.132 0.117-0.214 0.287-0.214 0.477 0 0.283 0.185 0.524 0.441 0.606l0.005 0.001 4.899 1.563c0.058 0.020 0.126 0.031 0.196 0.031 0.352 0 0.637-0.285 0.637-0.637 0-0.047-0.005-0.093-0.015-0.138l0.001 0.004-0.391-1.839c5.528-2.374 9.329-7.772 9.329-14.057 0-0.011 0-0.023-0-0.034v0.002zM15.992 14.664c0.352 0 0.638 0.286 0.638 0.638s-0.285 0.638-0.638 0.638v0c-0.352 0-0.638-0.286-0.638-0.638s0.286-0.638 0.638-0.638v0zM18.092 29.528l2.184-1.948 0.603 2.84-2.787-0.892z"></path>
<path fill="#2196f3" style="fill: var(--color3, #2196f3)" d="M15.354 3.185v1.275c0 0.352 0.286 0.638 0.638 0.638s0.638-0.285 0.638-0.638v0-1.275c0-0.352-0.285-0.638-0.638-0.638s-0.638 0.285-0.638 0.638v0zM3.876 14.664c-0.352 0-0.638 0.286-0.638 0.638s0.285 0.638 0.638 0.638h1.275c0.352 0 0.638-0.286 0.638-0.638s-0.285-0.638-0.638-0.638h-1.275zM28.108 15.939c0.352 0 0.638-0.286 0.638-0.638s-0.285-0.638-0.638-0.638h-1.275c-0.352 0-0.638 0.286-0.638 0.638s0.285 0.638 0.638 0.638h1.275z"></path>
</symbol>
<symbol id="diagram" viewBox="0 0 32 32">
<path fill="#2196f3" style="fill: var(--color3, #2196f3)" d="M14.926 14.965h1.066v4.798h-1.066v-4.798zM19.19 17.097h1.066v2.665h-1.066v-2.665zM10.661 18.696h1.066v1.066h-1.066v-1.066zM7.463 18.163h1.066v1.599h-1.066v-1.599z"></path>
<path fill="#212121" style="fill: var(--color2, #212121)" d="M1.599 28.291h25.586c0 0 0 0 0 0 0.883 0 1.599-0.716 1.599-1.599v0-2.132c0-0.883-0.716-1.599-1.599-1.599v0h-0.533v-13.294l3.028-2.868c0.207 0.104 0.452 0.166 0.711 0.166 0.888 0 1.608-0.72 1.608-1.608s-0.72-1.608-1.608-1.608c-0.888 0-1.608 0.72-1.608 1.608 0 0.247 0.056 0.481 0.155 0.69l-0.004-0.010-2.281 2.162v-1.23c0-0.883-0.716-1.599-1.599-1.599v0h-21.323c-0.883 0-1.599 0.716-1.599 1.599v0 15.992h-0.533c-0.883 0-1.599 0.716-1.599 1.599v0 2.132c0 0.883 0.716 1.599 1.599 1.599v0zM30.384 4.837c0.294 0 0.533 0.239 0.533 0.533s-0.239 0.533-0.533 0.533v0c-0.294 0-0.533-0.239-0.533-0.533s0.239-0.533 0.533-0.533v0zM3.198 6.969c0-0.294 0.239-0.533 0.533-0.533h21.323c0.294 0 0.533 0.239 0.533 0.533v2.239l-1.066 1.013v-2.185c0-0.295-0.239-0.534-0.534-0.534h-19.189c-0.294 0-0.534 0.239-0.534 0.533v13.327c0 0.294 0.239 0.533 0.534 0.533h19.189c0.295 0 0.534-0.239 0.534-0.533v-9.675l1.066-1.010v12.283h-22.389v-15.991zM7.996 13.899c-0.001 0-0.003 0-0.005 0-0.883 0-1.599 0.716-1.599 1.599s0.716 1.599 1.599 1.599c0.432 0 0.824-0.172 1.112-0.45l-0 0 1.853 0.93c0.215 0.107 0.476 0.057 0.636-0.122l3.939-4.432 3.872 2.902c0.208 0.155 0.498 0.139 0.686-0.039l3.365-3.188v8.131h-18.123v-12.261h18.123v2.661l-3.771 3.572-3.904-2.927c-0.088-0.067-0.2-0.107-0.32-0.107-0.158 0-0.3 0.069-0.398 0.178l-0 0.001-3.993 4.493-1.493-0.746c0.011-0.064 0.017-0.128 0.020-0.193 0-0.883-0.716-1.599-1.599-1.599v0zM8.529 15.498c0 0.294-0.239 0.533-0.533 0.533s-0.533-0.239-0.533-0.533v0c0-0.294 0.239-0.533 0.533-0.533s0.533 0.239 0.533 0.533v0zM11.727 24.026h5.33v0.533c0 0.294-0.238 0.533-0.533 0.533h-4.265c-0.294 0-0.533-0.239-0.533-0.533v0-0.533zM1.067 24.56c0-0.294 0.238-0.533 0.533-0.533h9.062v0.533c0 0.883 0.716 1.599 1.599 1.599v0h4.265c0.883 0 1.599-0.716 1.599-1.599v0-0.533h9.062c0.294 0 0.533 0.239 0.533 0.533v2.132c0 0.294-0.239 0.533-0.533 0.533h-25.586c-0 0-0 0-0 0-0.294 0-0.533-0.239-0.533-0.533 0 0 0 0 0 0v0-2.132z"></path>
</symbol>
<symbol id="astronaut" viewBox="0 0 32 32">
<path fill="#2196f3" style="fill: var(--color3, #2196f3)" d="M31.974 4.524c-0.064-0.191-0.227-0.332-0.427-0.362l-0.003-0-1.911-0.278-0.855-1.731c-0.179-0.365-0.777-0.365-0.956 0l-0.855 1.731-1.911 0.278c-0.26 0.039-0.457 0.26-0.457 0.528 0 0.15 0.062 0.285 0.161 0.382l1.383 1.348-0.326 1.903c-0.034 0.2 0.048 0.402 0.212 0.522 0.166 0.12 0.383 0.135 0.562 0.040l1.709-0.899 1.709 0.899c0.072 0.038 0.157 0.061 0.247 0.061 0.295 0 0.534-0.239 0.534-0.534 0-0.031-0.003-0.062-0.008-0.092l0 0.003-0.326-1.903 1.383-1.348c0.099-0.097 0.161-0.233 0.161-0.382 0-0.059-0.009-0.115-0.027-0.168l0.001 0.004zM29.511 5.851c-0.126 0.122-0.183 0.299-0.153 0.472l0.191 1.114-1-0.526c-0.072-0.039-0.158-0.062-0.249-0.062s-0.177 0.023-0.252 0.063l0.003-0.001-1 0.526 0.191-1.114c0.005-0.027 0.008-0.059 0.008-0.091 0-0.149-0.061-0.285-0.16-0.381l-0-0-0.811-0.79 1.119-0.162c0.174-0.025 0.324-0.134 0.402-0.292l0.5-1.013 0.5 1.013c0.078 0.158 0.228 0.267 0.402 0.292l1.119 0.162-0.809 0.79zM26.134 20.522h-1.067v1.067h1.067v-1.067zM26.134 22.656h-1.067v1.066h1.067v-1.066zM27.2 21.589h-1.067v1.067h1.067v-1.067zM25.067 21.589h-1.067v1.067h1.067v-1.067zM22.4 26.389h-1.067v1.067h1.067v-1.067zM22.4 28.523h-1.067v1.067h1.067v-1.067zM23.467 27.456h-1.067v1.067h1.067v-1.067zM21.334 27.456h-1.067v1.067h1.067v-1.067zM16 24.256h-1.066v1.067h1.066v-1.067zM16 26.389h-1.066v1.067h1.066v-1.067zM17.067 25.322h-1.067v1.067h1.067v-1.067zM14.934 25.322h-1.067v1.067h1.067v-1.067zM5.867 6.122h-1.066v1.066h1.066v-1.066zM5.867 8.256h-1.066v1.066h1.066v-1.066zM6.933 7.189h-1.067v1.067h1.066v-1.067zM4.8 7.189h-1.067v1.067h1.067v-1.067z"></path>
<path fill="#212121" style="fill: var(--color2, #212121)" d="M24.715 14.16c-0.28-0.376-0.698-0.636-1.179-0.703l-0.009-0.001c-0.076-0.012-0.164-0.018-0.254-0.018-0.411 0-0.789 0.139-1.090 0.373l0.004-0.003-1.253 0.96-1.898 1.417-1.358-0.541c2.421-1.086 4.113-3.508 4.113-6.32 0-3.823-3.122-6.934-6.961-6.934s-6.961 3.11-6.961 6.934c0 1.386 0.415 2.674 1.12 3.759l-2.768-0.024c-0.009 0-0.016 0.005-0.023 0.005-0.057 0.003-0.11 0.014-0.159 0.033l0.004-0.001c-0.013 0.005-0.026 0.007-0.038 0.013-0.006 0.003-0.013 0.003-0.019 0.006l-3.233 1.596c-0 0-0.001 0-0.001 0.001l-1.893 0.91c-0.024 0.011-0.045 0.023-0.065 0.036l0.001-0.001c-0.482 0.324-0.795 0.867-0.795 1.483 0 0.297 0.073 0.577 0.201 0.823l-0.005-0.010c0.22 0.424 0.592 0.742 1.043 0.885l0.013 0.003c0.161 0.053 0.345 0.083 0.537 0.083 0.308 0 0.598-0.078 0.851-0.216l-0.009 0.005 1.388-0.738 2.264-1.169 1.357-0.008-5.442 5.415c0 0.001-0.001 0.001-0.001 0.001l-1.339 1.333c-0.303 0.299-0.491 0.714-0.491 1.173 0 0.002 0 0.003 0 0.005v-0c0.002 0.919 0.748 1.664 1.667 1.664 0.001 0 0.002 0 0.002 0h-0c0.428 0 0.854-0.162 1.18-0.485l1.314-1.309 1.741-1.3 0.901 0.897-3.102 3.088c-0.303 0.299-0.491 0.714-0.491 1.173 0 0.001 0 0.003 0 0.004v-0c0 0.445 0.174 0.864 0.49 1.179 0.302 0.3 0.717 0.485 1.176 0.485 0.001 0 0.002 0 0.003 0h-0c0.427 0 0.855-0.162 1.18-0.485l4.488-4.472c0.007-0.006 0.016-0.009 0.022-0.016l5.166-5.658 3.471 0.494c0.025 0.004 0.050 0.006 0.075 0.006 0.064 0 0.127-0.016 0.187-0.038 0.017-0.006 0.032-0.015 0.049-0.023 0.019-0.010 0.039-0.015 0.058-0.027l3.213-2.133c0.012-0.008 0.018-0.021 0.029-0.030 0.013-0.010 0.029-0.014 0.041-0.026l1.271-1.191c0.348-0.326 0.564-0.787 0.564-1.3 0-0.4-0.132-0.769-0.355-1.066l0.003 0.005zM2.13 17.77c-0.098 0.054-0.215 0.086-0.34 0.086-0.078 0-0.153-0.013-0.224-0.036l0.005 0.001c-0.294-0.093-0.504-0.364-0.504-0.683 0-0.235 0.114-0.444 0.289-0.575l0.002-0.001 1.314-0.632 0.316 0.924 0.133 0.389-0.992 0.527zM5.627 15.942l-1.548 0.8-0.255-0.746-0.184-0.537 2.027-1.001-0.040 1.484zM20.727 9.322c0 0.918-0.219 1.785-0.599 2.56l-4.181-1.899c-0.044-0.575-0.342-1.072-0.782-1.384l-0.006-0.004 1.464-4.861c2.377 0.757 4.104 2.975 4.104 5.588zM8.938 9.322c0-3.235 2.644-5.867 5.894-5.867 0.253 0 0.5 0.022 0.745 0.053l-1.432 4.753c-0.019 0-0.037-0.006-0.057-0.006-0 0-0.001 0-0.001 0-1.032 0-1.869 0.835-1.872 1.867v0c0.003 1.031 0.84 1.867 1.872 1.867 0 0 0 0 0.001 0h-0c0.695 0 1.295-0.383 1.618-0.944l3.863 1.755c-1.075 1.447-2.795 2.39-4.737 2.39-3.25 0-5.894-2.632-5.894-5.867zM14.895 10.122c0 0.441-0.362 0.8-0.806 0.8-0 0-0.001 0-0.001 0-0.443 0-0.802-0.358-0.804-0.8v-0c0-0.441 0.361-0.8 0.806-0.8s0.806 0.359 0.806 0.8zM2.464 25.146c-0.11 0.109-0.261 0.176-0.428 0.176s-0.317-0.067-0.427-0.175l0 0c-0.109-0.108-0.176-0.257-0.176-0.422s0.067-0.314 0.176-0.422l0-0 0.962-0.959 0.852 0.848-0.959 0.954zM5.678 28.88c-0.11 0.109-0.261 0.176-0.428 0.176s-0.317-0.067-0.427-0.175l0 0c-0.109-0.108-0.176-0.257-0.176-0.422s0.067-0.314 0.176-0.422l0-0 0.963-0.959 0.852 0.848-0.96 0.955zM9.16 25.411l-0.001 0.001-1.765 1.76-0.852-0.848 1.765-1.757c0.040-0.040 0.065-0.088 0.090-0.136 0.007-0.014 0.020-0.026 0.026-0.040 0.016-0.041 0.019-0.085 0.026-0.128 0.003-0.025 0.014-0.048 0.014-0.073 0-0.035-0.013-0.070-0.020-0.105-0.006-0.032-0.006-0.064-0.019-0.096-0.025-0.053-0.055-0.098-0.092-0.138l0 0c-0.010-0.012-0.014-0.026-0.025-0.038h-0.001s0-0.001-0.001-0.002l-1.607-1.6c-0.017-0.017-0.039-0.024-0.058-0.038-0.025-0.021-0.054-0.040-0.084-0.056l-0.003-0.001c-0.026-0.012-0.058-0.023-0.090-0.031l-0.003-0.001c-0.030-0.009-0.065-0.017-0.101-0.020l-0.002-0c-0.007-0-0.015-0-0.023-0-0.026 0-0.051 0.002-0.075 0.005l0.003-0c-0.036 0.005-0.069 0.009-0.104 0.021s-0.064 0.027-0.094 0.045c-0.020 0.011-0.043 0.015-0.061 0.029l-1.774 1.324-0.901-0.897 2.399-2.386 4.36 4.289-0.928 0.919zM15.979 18.394c-0.016-0.002-0.030 0.004-0.046 0.003-0.008-0-0.017-0.001-0.027-0.001-0.031 0-0.062 0.003-0.092 0.008l0.003-0c-0.070 0.011-0.132 0.035-0.187 0.070l0.002-0.001c-0.030 0.018-0.057 0.037-0.083 0.061-0.013 0.011-0.028 0.016-0.040 0.029l-4.698 5.146-4.328-4.256 2.833-2.818c0.096-0.097 0.156-0.23 0.156-0.377 0-0.295-0.239-0.534-0.534-0.534-0.001 0-0.001 0-0.002 0h0l-2.219 0.013 0.028-1.607 3.104 0.027c1.264 1.297 3.027 2.101 4.978 2.101 0.001 0 0.002 0 0.003 0h-0c0.438 0 0.864-0.046 1.28-0.122 0.040 0.032 0.080 0.064 0.129 0.085l2.41 0.96 0.152 0.758 0.178 0.886-3.003-0.427zM20.020 18.572l-0.313-1.558 1.446-1.080 0.946 1.257-2.080 1.381zM23.773 15.741l-0.837 0.785-0.931-1.236 0.831-0.637c0.155-0.119 0.351-0.168 0.543-0.143 0.193 0.027 0.364 0.128 0.48 0.284 0.088 0.117 0.141 0.265 0.141 0.426 0 0.206-0.087 0.391-0.226 0.521l-0 0z"></path>
<path fill="#212121" style="fill: var(--color2, #212121)" d="M13.602 18.544l-2.143-2.134c-0.096-0.096-0.229-0.155-0.376-0.155s-0.28 0.059-0.376 0.155l-2.143 2.133c-0.097 0.097-0.156 0.23-0.156 0.378s0.060 0.281 0.156 0.378l-0-0 2.142 2.134c0.096 0.096 0.229 0.156 0.376 0.156s0.28-0.059 0.376-0.156v0l2.143-2.134c0.097-0.097 0.157-0.23 0.157-0.378s-0.060-0.281-0.157-0.378l-0-0zM11.083 20.303l-1.387-1.381 1.386-1.381 1.387 1.381-1.387 1.381zM17.164 5.071l-0.258 1.036c0.071 0.018 1.738 0.452 1.738 2.149h1.067c0-2.017-1.666-2.965-2.547-3.184zM19.711 9.322h-1.067v1.066h1.067v-1.066z"></path>
</symbol>
<symbol id="instagram" viewBox="0 0 32 32">
<path d="M31.968 9.408c-0.074-1.701-0.349-2.869-0.742-3.882-0.424-1.111-1.054-2.059-1.85-2.837l-0.001-0.001c-0.78-0.792-1.724-1.419-2.778-1.827l-0.054-0.018c-1.019-0.394-2.181-0.667-3.882-0.742-1.712-0.082-2.256-0.101-6.602-0.101-4.344 0-4.888 0.019-6.595 0.094-1.699 0.074-2.869 0.349-3.88 0.742-1.112 0.424-2.060 1.054-2.839 1.85l-0.001 0.001c-0.791 0.78-1.418 1.724-1.825 2.778l-0.018 0.054c-0.395 1.019-0.669 2.181-0.744 3.882-0.082 1.712-0.101 2.256-0.101 6.602 0 4.344 0.019 4.888 0.094 6.595 0.075 1.701 0.35 2.869 0.744 3.882 0.426 1.11 1.055 2.057 1.849 2.837l0.001 0.001c0.8 0.813 1.77 1.443 2.832 1.843 1.019 0.395 2.182 0.67 3.882 0.744 1.707 0.075 2.251 0.094 6.595 0.094 4.346 0 4.89-0.019 6.595-0.094 1.701-0.074 2.869-0.349 3.882-0.742 2.157-0.85 3.833-2.526 4.664-4.628l0.019-0.055c0.394-1.019 0.669-2.182 0.744-3.882 0.075-1.707 0.093-2.251 0.093-6.595s-0.006-4.888-0.080-6.595zM29.088 22.474c-0.070 1.563-0.333 2.406-0.55 2.97-0.552 1.399-1.64 2.486-3.004 3.024l-0.036 0.012c-0.56 0.219-1.411 0.482-2.968 0.55-1.688 0.075-2.194 0.094-6.464 0.094-4.269 0-4.782-0.019-6.464-0.094-1.563-0.069-2.406-0.331-2.97-0.55-0.721-0.269-1.334-0.676-1.836-1.192l-0.001-0.001c-0.517-0.503-0.924-1.117-1.184-1.803l-0.011-0.034c-0.218-0.563-0.48-1.413-0.549-2.97-0.075-1.688-0.094-2.195-0.094-6.464 0-4.27 0.019-4.784 0.094-6.464 0.069-1.563 0.331-2.406 0.549-2.97 0.269-0.722 0.678-1.337 1.198-1.837l0.002-0.002c0.504-0.517 1.119-0.923 1.806-1.182l0.034-0.011c0.56-0.219 1.411-0.48 2.968-0.55 1.688-0.074 2.195-0.093 6.464-0.093 4.275 0 4.782 0.019 6.464 0.093 1.563 0.069 2.406 0.331 2.97 0.55 0.693 0.256 1.325 0.662 1.837 1.194 0.531 0.52 0.938 1.144 1.195 1.84 0.218 0.56 0.48 1.411 0.549 2.968 0.075 1.688 0.094 2.194 0.094 6.464 0 4.269-0.019 4.768-0.094 6.458z"></path>
<path d="M16.059 7.782c-4.539 0.002-8.218 3.682-8.219 8.221v0c0 0 0 0.001 0 0.002 0 4.541 3.681 8.222 8.222 8.222s8.222-3.681 8.222-8.222c0-4.541-3.681-8.222-8.222-8.222-0.001 0-0.001 0-0.002 0h0zM16.059 21.334c-2.945-0-5.332-2.388-5.332-5.333s2.388-5.333 5.333-5.333c0 0 0.001 0 0.001 0h-0c2.946 0 5.334 2.388 5.334 5.334s-2.388 5.334-5.334 5.334v0zM26.525 7.458c0 1.060-0.86 1.92-1.92 1.92s-1.92-0.86-1.92-1.92v0c0-1.060 0.86-1.92 1.92-1.92s1.92 0.86 1.92 1.92v0z"></path>
</symbol>
<symbol id="twitter" viewBox="0 0 32 32">
<path d="M32 6.078c-1.1 0.493-2.376 0.857-3.713 1.028l-0.068 0.007c1.36-0.817 2.382-2.078 2.873-3.579l0.013-0.046c-1.197 0.722-2.591 1.273-4.076 1.573l-0.084 0.014c-1.2-1.279-2.9-2.076-4.787-2.076-3.622 0-6.558 2.936-6.558 6.558 0 0.001 0 0.003 0 0.004v-0c0 0.52 0.043 1.021 0.152 1.496-5.454-0.266-10.28-2.88-13.522-6.861-0.564 0.949-0.899 2.092-0.902 3.313v0.001c0 2.272 1.171 4.286 2.914 5.451-1.091-0.030-2.107-0.325-2.994-0.823l0.033 0.017v0.072c0.003 3.165 2.236 5.807 5.213 6.44l0.043 0.008c-0.499 0.136-1.071 0.215-1.662 0.215-0.020 0-0.041-0-0.061-0l0.003 0c-0.419 0-0.843-0.024-1.242-0.112 0.85 2.598 3.261 4.509 6.13 4.57-2.215 1.746-5.045 2.8-8.122 2.8-0.004 0-0.008 0-0.013 0h0.001c-0.018 0-0.040 0-0.062 0-0.531 0-1.055-0.034-1.569-0.099l0.061 0.006c2.826 1.846 6.287 2.944 10.004 2.944 0.021 0 0.042-0 0.063-0h-0.003c12.072 0 18.672-10 18.672-18.669 0-0.288-0.010-0.57-0.024-0.848 1.299-0.936 2.39-2.064 3.258-3.355l0.030-0.047z"></path>
</symbol>
<symbol id="facebook" viewBox="0 0 32 32">
<path d="M21.328 5.312h2.923v-5.088c-1.232-0.143-2.66-0.224-4.108-0.224-0.052 0-0.104 0-0.156 0l0.008-0c-4.213 0-7.099 2.65-7.099 7.52v4.48h-4.646v5.688h4.646v14.312h5.699v-14.31h4.459l0.707-5.688h-5.168v-3.922c0-1.643 0.443-2.768 2.734-2.768z"></path>
</symbol>
<symbol id="linkedin" viewBox="0 0 32 32"><path d="M31.992 32v-.001H32V20.263c0-5.741-1.236-10.164-7.948-10.164-3.227 0-5.392 1.771-6.276 3.449h-.093v-2.913h-6.364v21.364h6.627V21.42c0-2.785.528-5.479 3.977-5.479 3.399 0 3.449 3.179 3.449 5.657v10.401h6.62zM.528 10.636h6.635V32H.528V10.636zM3.843 0C1.722 0 0 1.721 0 3.843s1.721 3.879 3.843 3.879c2.121 0 3.843-1.757 3.843-3.879A3.846 3.846 0 003.843 0z"/></symbol>
<symbol id="logo-1" viewBox="0 0 57 32"><path  d="M20.267 3.733l3.738 3.538-6.938-.004v17.166H35.2v-6.564l3.733 3.534V3.732H20.266zm14.769 13.722L24.439 7.423h10.597v10.032zm-3.29 4.468h-11.81V10.378h.835v10.764h10.975v.782zm-9.021 4.797l-.436.898-.436-.898h-.366l.637 1.198v.698h.331v-.698l.635-1.198h-.365zm.548 1.895l.154-.441h.734l.155.441h.344l-.717-1.896h-.296l-.716 1.896h.342zm.521-1.493l.275.786h-.549l.275-.786zm1.737.741a.429.429 0 00-.072.241c0 .16.056.29.168.389s.263.148.451.148.349-.051.484-.152l.107.126h.367l-.279-.329a.95.95 0 00.164-.574h-.275a.758.758 0 01-.079.348l-.366-.432.129-.094c.091-.066.157-.132.197-.198s.06-.14.06-.219c0-.12-.044-.22-.133-.301s-.201-.122-.339-.122c-.153 0-.274.043-.365.13s-.135.203-.135.352c0 .061.014.124.043.189s.081.144.155.237a1.12 1.12 0 00-.283.262zm.855.419a.485.485 0 01-.299.107c-.095 0-.17-.027-.227-.082s-.085-.126-.085-.214c0-.102.052-.192.156-.271l.04-.029.414.488zm-.34-.84c-.089-.11-.134-.202-.134-.275 0-.063.018-.116.055-.158s.085-.063.147-.063c.057 0 .105.018.142.053s.056.077.056.126a.235.235 0 01-.081.184l-.04.033-.145.099zm3.086 1.03a.689.689 0 00.224-.474h-.328c-.017.135-.059.232-.124.29s-.162.087-.292.087c-.142 0-.249-.054-.323-.161s-.109-.264-.109-.469v-.168c.002-.202.041-.355.117-.46s.188-.158.331-.158c.123 0 .217.03.28.091s.104.158.12.294h.328c-.021-.207-.095-.368-.223-.482s-.296-.171-.505-.171a.718.718 0 00-.683.426 1.116 1.116 0 00-.095.473v.177c.003.174.035.328.098.46s.151.234.266.306a.748.748 0 00.4.107c.216 0 .389-.056.52-.169zm1.936-.266c.064-.141.096-.304.096-.49v-.105c-.001-.185-.034-.347-.099-.486a.726.726 0 00-.687-.432.757.757 0 00-.411.113c-.119.075-.211.183-.277.324s-.098.305-.098.49v.107c.001.181.034.342.099.48s.159.246.279.322a.764.764 0 00.411.112c.155 0 .293-.037.411-.112s.212-.183.276-.323zm-.352-1.071c.08.112.12.273.12.483v.099c0 .214-.04.376-.119.487s-.19.167-.336.167c-.144 0-.257-.057-.339-.171s-.121-.275-.121-.483v-.109c.002-.204.043-.362.122-.473s.192-.168.335-.168c.146 0 .258.056.337.168z"/></symbol>
<symbol id="logo-2" viewBox="0 0 57 32"><path d="M26.727 3.165h-.073a7.542 7.542 0 00-.336-.012h-.243c-.212 0-.428.005-.642.016a.4.4 0 00-.049 0c-1.944.11-3.848.596-5.609 1.431l-.231.111V16.52l.54-.183a20.64 20.64 0 011.5-.445 18.34 18.34 0 014.317-.574v1.551c-.193.001-.38.007-.568.016h-.045a17.207 17.207 0 00-3.322.51 16.858 16.858 0 00-3.957 1.542V3.792a15.847 15.847 0 014.151-1.688c1.278-.33 2.593-.5 3.913-.504h.228c.273.007.538.019.788.038.658.046 1.31.15 1.95.311v1.527a12.05 12.05 0 00-1.889-.285l-.039-.003c-.132-.011-.263-.022-.386-.022zm2.688 1.561c.339.026.689.038 1.044.038a16.75 16.75 0 004.114-.528 16.958 16.958 0 003.956-1.543v14.875a15.88 15.88 0 01-4.153 1.688 15.948 15.948 0 01-3.913.503c-1 .008-1.997-.11-2.968-.35V4.438c.229.053.465.102.706.142.394.066.81.115 1.214.145zm7.57.115l-.54.182c-.497.167-.997.316-1.5.449a18.23 18.23 0 01-4.483.575c-.352 0-.676-.01-.989-.03l-.43-.028v12.148l.37.033c.343.03.696.045 1.052.045a14.364 14.364 0 003.531-.457c.95-.238 1.874-.57 2.759-.991l.231-.111V4.843zM19.06 24.113a.788.788 0 00-.6-.243.895.895 0 00-.347.065.778.778 0 00-.444.449.893.893 0 00-.062.335v2.023a.94.94 0 00.08.415.718.718 0 00.48.415c.098.028.2.042.302.042a.855.855 0 00.838-.851v-.226h-.529v.18a.458.458 0 01-.031.18.315.315 0 01-.077.114.38.38 0 01-.222.077.266.266 0 01-.249-.109.479.479 0 01-.07-.271v-1.887a.643.643 0 01.065-.302c.027-.043.066-.077.112-.098s.097-.03.147-.024a.28.28 0 01.236.114c.059.078.09.173.088.271v.175h.524v-.206a.953.953 0 00-.242-.639zM22.202 24.09a.92.92 0 00-1.197 0 .82.82 0 00-.205.283.959.959 0 00-.077.392v1.941a.932.932 0 00.077.397.791.791 0 00.205.271.837.837 0 00.279.171.897.897 0 00.918-.171.849.849 0 00.2-.271.934.934 0 00.077-.397v-1.941a.943.943 0 00-.077-.392.867.867 0 00-.2-.283zm-.247 2.616a.355.355 0 01-.105.28.386.386 0 01-.498 0 .352.352 0 01-.105-.28v-1.941a.355.355 0 01.105-.28.386.386 0 01.498 0 .352.352 0 01.105.28v1.941zM26.329 27.573v-3.674h-.509l-.668 1.945h-.009l-.673-1.945h-.503v3.674h.525v-2.235h.009l.514 1.58h.262l.518-1.58h.009v2.235h.525zM29.311 24.157a.727.727 0 00-.297-.201 1.168 1.168 0 00-.38-.057h-.78v3.674h.523v-1.435h.27a.964.964 0 00.472-.1.759.759 0 00.287-.281.875.875 0 00.12-.32c.021-.138.03-.278.028-.418a2.107 2.107 0 00-.051-.525.785.785 0 00-.193-.338zm-.27 1.12a.45.45 0 01-.049.191.296.296 0 01-.135.129.538.538 0 01-.247.046h-.239v-1.249h.27a.506.506 0 01.236.046.3.3 0 01.123.136.537.537 0 01.046.205v.244c0 .085.005.174 0 .252h-.005zM31.791 23.899h-.429l-.809 3.674h.523l.154-.789h.714l.154.789h.524l-.83-3.674zm-.483 2.384l.258-1.332h.009l.256 1.332h-.524zM35.173 26.112h-.009l-.791-2.213h-.503v3.674h.523v-2.209h.011l.8 2.209h.492v-3.674h-.523v2.213zM38.372 23.899l-.421 1.461h-.011l-.421-1.461h-.554l.719 2.121v1.553h.524V26.02l.719-2.121h-.554zM17.6 28.61h.252v.708h.171v-.708h.251v-.145h-.675v.145zM19.721 28.465l-.331.853h.182l.07-.194h.34l.073.194h.186l-.339-.853h-.182zm-.027.516l.116-.316.116.316h-.232zM21.818 29.004h.197v.11a.332.332 0 01-.202.072c-.034.002-.069-.004-.1-.019s-.059-.036-.081-.063a.352.352 0 01-.063-.222c0-.19.082-.285.246-.285.043-.004.086.007.121.032s.061.062.072.104l.169-.033c-.036-.167-.156-.251-.362-.251a.426.426 0 00-.298.11.413.413 0 00-.122.328.465.465 0 00.109.32.408.408 0 00.324.125.511.511 0 00.362-.136v-.336h-.37v.144zM23.959 28.465h-.173v.853h.598v-.145h-.425v-.708zM25.769 28.465h-.173v.853h.173v-.853zM27.539 29.035l-.349-.57h-.167v.853h.161v-.557l.343.557h.171v-.853h-.158v.57zM29.14 28.943h.425v-.145h-.425v-.187h.457v-.145h-.63v.853h.648v-.145h-.475v-.231zM33.02 28.802h-.336v-.336h-.171v.853h.171v-.373h.336v.373h.171v-.853h-.171v.336zM34.629 28.943h.426v-.145h-.426v-.187h.459v-.145h-.63v.853h.646v-.145h-.475v-.231zM36.812 28.943c.148-.023.224-.102.224-.237a.203.203 0 00-.084-.189.479.479 0 00-.25-.05h-.362v.853h.171v-.357h.034a.231.231 0 01.107.019.181.181 0 01.061.062l.186.271h.205L37 29.148a.6.6 0 00-.189-.205zm-.172-.118h-.127v-.214h.135a.445.445 0 01.174.02c.012.011.022.025.029.04a.116.116 0 01-.004.097.114.114 0 01-.032.037.486.486 0 01-.174.02zM38.458 28.943h.425v-.145h-.425v-.187h.459v-.145h-.631v.853h.648v-.145h-.475v-.231z"/></symbol>
<symbol id="logo-3" viewBox="0 0 57 32"><path  d="M19.417 26.187c.008 0 .017.002.025.005s.015.007.02.013l.116.111a.955.955 0 01-.327.211 1.299 1.299 0 01-.464.076 1.213 1.213 0 01-.436-.071.942.942 0 01-.329-.2.878.878 0 01-.212-.308 1.02 1.02 0 01-.074-.396.91.91 0 01.305-.705 1.06 1.06 0 01.349-.201c.143-.048.296-.072.449-.071.143-.003.285.019.417.064.115.043.221.104.313.178l-.097.119a.085.085 0 01-.025.021.066.066 0 01-.039.009.086.086 0 01-.042-.013l-.052-.032-.073-.04a.818.818 0 00-.229-.071 1.11 1.11 0 00-.173-.013.952.952 0 00-.323.053.683.683 0 00-.417.387.81.81 0 00-.06.313.795.795 0 00.06.318.68.68 0 00.402.383.867.867 0 00.3.05c.059.001.119-.003.177-.01a.69.69 0 00.384-.163.09.09 0 01.055-.02zM22.776 25.629a.974.974 0 01-.078.393c-.047.114-.122.218-.219.305s-.214.155-.344.2a1.42 1.42 0 01-.884 0 1.027 1.027 0 01-.342-.201.904.904 0 01-.221-.308 1.022 1.022 0 010-.787.94.94 0 01.221-.31c.097-.084.214-.15.342-.193.284-.096.6-.096.884 0 .129.046.246.114.343.201a.914.914 0 01.298.699zm-.306 0a.84.84 0 00-.055-.316.653.653 0 00-.402-.385 1.025 1.025 0 00-.643 0 .683.683 0 00-.246.149.63.63 0 00-.157.236.927.927 0 000 .632.643.643 0 00.403.384c.207.067.435.067.643 0a.698.698 0 00.246-.148.662.662 0 00.156-.236.82.82 0 00.055-.316zM25.067 25.96l.03.071.033-.071a.68.68 0 01.038-.07l.743-1.174c.015-.02.028-.033.042-.037a.207.207 0 01.061-.006h.22v1.909h-.26v-1.404-.059a.726.726 0 010-.066l-.747 1.19c-.009.018-.025.033-.044.043s-.041.016-.064.016h-.042c-.023 0-.045-.005-.064-.016s-.034-.026-.044-.044l-.769-1.198v1.533h-.252v-1.905h.22a.207.207 0 01.061.006.087.087 0 01.041.037l.759 1.175a.418.418 0 01.038.068zM27.864 25.865v.715h-.291v-1.906h.649c.122-.002.244.012.362.042a.724.724 0 01.256.119.492.492 0 01.145.187.576.576 0 01.049.244.54.54 0 01-.211.435.752.752 0 01-.257.126 1.25 1.25 0 01-.35.044l-.352-.005zm0-.205h.352a.808.808 0 00.225-.029.52.52 0 00.163-.082.358.358 0 00.134-.286c.003-.053-.007-.106-.029-.155s-.057-.094-.102-.13a.624.624 0 00-.391-.102h-.352v.786zM31.772 26.583h-.23a.109.109 0 01-.064-.018.123.123 0 01-.038-.044l-.198-.461h-.993l-.205.461a.107.107 0 01-.101.062h-.23l.872-1.909h.302l.884 1.909zm-1.439-.709h.82l-.346-.777a1.276 1.276 0 01-.065-.179l-.034.1a.98.98 0 01-.032.081l-.343.776zM33.029 24.682c.017.008.032.02.044.034l1.272 1.439v-.067-1.415h.26v1.909h-.145a.136.136 0 01-.06-.011.165.165 0 01-.047-.035l-1.271-1.438a.726.726 0 010 .066v1.419h-.26v-1.909h.154a.15.15 0 01.052.009zM36.748 25.823v.758h-.291fillv-.758l-.804-1.15h.26a.114.114 0 01.063.016.159.159 0 01.039.043l.503.742a.717.717 0 01.088.169l.038-.082a.745.745 0 01.049-.087l.496-.747a.18.18 0 01.038-.04.098.098 0 01.063-.019h.263l-.806 1.155zM24.923 21.47c.127.014.255.025.384.035 1.962-.763 3.622-2.011 4.772-3.588s1.74-3.415 1.695-5.282l-2.162-1.879c.44 1.988.234 4.043-.594 5.935s-2.245 3.547-4.094 4.779z"/><path  d="M24.151 21.383l.058.01c1.975-1.228 3.482-2.942 4.323-4.921s.981-4.133.4-6.181l-3.08-2.676c1.246 2.2 1.747 4.661 1.446 7.098s-1.393 4.75-3.147 6.67zM34.596 14.841c-.523 2.052-1.794 3.902-3.624 5.276-.534.404-1.111.763-1.722 1.074 1.49-.38 2.859-1.053 4.003-1.966s2.03-2.042 2.592-3.3l-1.249-1.084z"/><path  d="M34.106 14.539l-1.778-1.545c-.034 1.762-.61 3.483-1.669 4.986s-2.562 2.731-4.352 3.559h.009c.399 0 .798-.021 1.194-.062 1.673-.593 3.151-1.537 4.303-2.748s1.94-2.65 2.295-4.189zM24.409 6.486L22.287 4.64c-1.897.637-3.528 1.756-4.68 3.212s-1.772 3.179-1.778 4.946c.007 1.952.763 3.846 2.149 5.383s3.322 2.628 5.501 3.101c1.946-2.06 3.085-4.605 3.252-7.266s-.647-5.299-2.323-7.53zM39.008 14.255c-.008-2.316-1.07-4.535-2.955-6.173s-4.439-2.561-7.105-2.567a11.3 11.3 0 00-3.602.582l12.99 11.286a7.647 7.647 0 00.672-3.128z"/></symbol>
<symbol id="logo-4" viewBox="0 0 57 32"><path  d="M12.878 11.255h-.002c-1.279 0-2.316.921-2.316 2.058v.001c0 1.137 1.037 2.058 2.316 2.058h.002c1.279 0 2.316-.921 2.316-2.058v-.001c0-1.137-1.037-2.058-2.316-2.058zM29.971 10.597c-.004-1.579-.711-3.092-1.967-4.208s-2.958-1.745-4.735-1.749c-1.777.003-3.48.631-4.737 1.748s-1.964 2.63-1.968 4.209v8.706s13.405-1.327 13.406-8.704v-.001zM5.867 22.16c.003 1.098.496 2.151 1.369 2.928s2.058 1.215 3.294 1.218c1.236-.003 2.42-.441 3.294-1.218s1.366-1.829 1.37-2.927v-6.057s-9.327.924-9.327 6.056zm4.663 1.085c-.242 0-.478-.064-.678-.183s-.357-.289-.45-.487c-.092-.198-.117-.417-.069-.627s.163-.404.334-.556c.171-.152.388-.255.625-.297s.482-.02.706.062c.223.082.414.221.548.4s.206.388.206.603c.001.143-.031.284-.092.417s-.151.252-.264.353c-.114.101-.248.182-.397.236s-.308.083-.468.083v-.004zM19.956 22.647h-.9v.93h-.469v-2.275h1.481v.38h-1.012v.588h.9v.378zm2.253-.156c0 .224-.04.42-.119.589a.893.893 0 01-.847.528c-.189 0-.357-.045-.505-.136s-.262-.22-.344-.387a1.344 1.344 0 01-.123-.581v-.112c0-.224.04-.421.12-.591a.895.895 0 01.848-.529c.189 0 .358.046.505.137a.888.888 0 01.342.392c.081.17.122.366.122.589v.102zm-.475-.103c0-.238-.043-.42-.128-.544s-.207-.186-.366-.186a.416.416 0 00-.364.184c-.085.122-.129.301-.13.538v.111c0 .232.043.412.128.541s.208.192.369.192a.415.415 0 00.363-.184c.084-.124.127-.304.128-.541v-.111zm1.996.592a.237.237 0 00-.094-.203 1.203 1.203 0 00-.337-.15 2.418 2.418 0 01-.386-.156c-.258-.14-.387-.328-.387-.564 0-.123.034-.232.103-.328a.688.688 0 01.298-.227c.13-.054.276-.081.438-.081.163 0 .307.03.434.089a.662.662 0 01.401.614h-.469c0-.104-.033-.185-.098-.242s-.158-.087-.277-.087a.426.426 0 00-.267.073.225.225 0 00-.095.191c0 .074.037.136.111.186.075.05.185.097.33.141.267.08.461.18.583.298s.183.267.183.444a.55.55 0 01-.223.464c-.149.111-.349.167-.602.167-.175 0-.334-.032-.478-.095-.144-.065-.254-.153-.33-.264s-.113-.241-.113-.388h.47c0 .251.15.377.45.377a.442.442 0 00.261-.067.222.222 0 00.094-.191zm2.501-1.298h-.697v1.895h-.469v-1.895h-.687v-.38h1.853v.38zm1.638.909h-.9v.609h1.056v.377H26.5v-2.275h1.522v.38h-1.053v.542h.9v.367zm1.273.153h-.373v.833H28.3v-2.275h.845c.269 0 .476.06.622.18s.219.289.219.508a.697.697 0 01-.102.389.689.689 0 01-.305.247l.492.93v.022h-.503l-.427-.833zm-.373-.379h.378c.118 0 .209-.03.273-.089a.321.321 0 00.097-.248.343.343 0 00-.092-.253c-.06-.061-.154-.092-.28-.092h-.377v.683zm2.84.41v.802h-.469v-2.275h.887c.171 0 .321.031.45.094a.703.703 0 01.405.659.655.655 0 01-.23.528c-.152.128-.363.192-.633.192h-.411zm0-.379h.419c.124 0 .218-.029.283-.088.066-.058.098-.142.098-.25 0-.111-.033-.202-.098-.27s-.156-.104-.272-.106h-.43v.714zm2.966.195h-.9v.609h1.056v.377h-1.525v-2.275h1.522v.38h-1.053v.542h.9v.367zm2.175-.909h-.697v1.895h-.469v-1.895h-.688v-.38h1.853v.38zm1.637.909h-.9v.609h1.056v.377h-1.525v-2.275h1.522v.38h-1.053v.542h.9v.367zm1.274.153h-.373v.833h-.469v-2.275h.845c.269 0 .476.06.622.18s.219.289.219.508a.697.697 0 01-.102.389.689.689 0 01-.305.247l.492.93v.022h-.503l-.427-.833zm-.374-.379h.378c.118 0 .209-.03.273-.089a.321.321 0 00.097-.248.343.343 0 00-.092-.253c-.06-.061-.154-.092-.28-.092h-.377v.683zm2.755.615a.237.237 0 00-.094-.203 1.203 1.203 0 00-.337-.15 2.418 2.418 0 01-.386-.156c-.258-.14-.388-.328-.388-.564 0-.123.034-.232.103-.328a.688.688 0 01.298-.227c.13-.054.276-.081.438-.081.163 0 .307.03.434.089a.675.675 0 01.295.248.646.646 0 01.106.366h-.469c0-.104-.033-.185-.098-.242s-.158-.087-.277-.087a.426.426 0 00-.267.073.225.225 0 00-.095.191c0 .074.037.136.111.186.075.05.185.097.33.141.267.08.461.18.583.298s.183.267.183.444a.548.548 0 01-.223.464c-.149.111-.349.167-.602.167-.175 0-.334-.032-.478-.095a.773.773 0 01-.33-.264.678.678 0 01-.112-.388h.47c0 .251.15.377.45.377a.442.442 0 00.261-.067.222.222 0 00.094-.191z"/>
</symbol>
<symbol id="logo-5" viewBox="0 0 57 32"><path  d="M14.27 23.859c.13.147.199.332.196.521.007.123-.017.247-.07.361s-.132.216-.233.297c-.252.175-.565.26-.881.24h-1.549v-3.302h1.517c.299-.018.596.059.84.219.098.075.176.17.227.277s.074.224.068.341a.725.725 0 01-.176.505.839.839 0 01-.462.258.897.897 0 01.523.282zm-1.816-.499h.648a.653.653 0 00.412-.11c.049-.04.087-.09.111-.146s.034-.116.028-.176c.005-.06-.005-.12-.029-.175s-.061-.106-.108-.147a.665.665 0 00-.425-.111h-.638v.866zm1.124 1.267c.052-.041.093-.093.12-.151s.038-.121.034-.184c.004-.064-.008-.127-.035-.186s-.069-.111-.121-.153a.714.714 0 00-.44-.119h-.68v.908h.689a.732.732 0 00.435-.114zM17.371 25.278l-.844-1.291h-.317v1.291h-.726v-3.302h1.374c.346-.022.689.078.957.281.192.179.308.415.327.666s-.061.499-.224.7c-.17.178-.401.296-.655.336l.898 1.32h-.789zm-1.161-1.74h.594c.412 0 .618-.167.618-.5a.458.458 0 00-.151-.371.687.687 0 00-.467-.134h-.601l.007 1.005zM21.339 24.614h-1.446l-.255.665h-.761l1.328-3.265h.823l1.323 3.265h-.761l-.25-.665zm-.194-.5l-.529-1.394-.529 1.394h1.057zM26.305 25.278h-.721l-1.616-2.245v2.245h-.719v-3.302h.719l1.616 2.258v-2.258h.721v3.302zM30.417 24.488a1.501 1.501 0 01-.652.582 2.282 2.282 0 01-1.013.208h-1.283v-3.302h1.283c.351-.008.698.061 1.013.203.276.127.503.328.652.576a1.78 1.78 0 010 1.732zm-.824-.079c.206-.219.319-.499.319-.788s-.113-.569-.319-.788a1.326 1.326 0 00-.902-.281h-.5v2.137h.5c.329.019.654-.082.902-.281zM21.79 3.609s9.301 3.215 9.103 7.867v7.869s-9.294-3.217-9.1-7.869l-.004-7.867zM39.179 17.503a13.494 13.494 0 015.909-1.994v-2.463c-2.444.862-4.517 2.426-5.909 4.457z"/><path d="M38.124 18.245c1.438-2.651 3.93-4.696 6.964-5.715V5.432s-13.245 4.58-12.965 11.205V27.84s.59-.205 1.519-.589c0-.358 0-.719.042-1.082.274-3.076 1.871-5.926 4.44-7.924z"/><path d="M36.864 22.407c.07-.777.225-1.546.463-2.294-1.599 1.725-2.568 3.866-2.77 6.122-.019.213-.03.426-.035.645a40.466 40.466 0 002.548-1.229 10.624 10.624 0 01-.206-3.244zM37.391 22.447a10.17 10.17 0 00.164 2.938c3.619-1.983 7.685-5.046 7.528-8.748v-.323c-2.585.265-5.004 1.3-6.885 2.946a10.29 10.29 0 00-.807 3.188z"/></symbol>
<symbol id="logo-6" viewBox="0 0 57 32"><path d="M28.493 14.618a1.58 1.58 0 01-.323-1.061v-1.538c0-.471.107-.83.321-1.075s.581-.367 1.102-.366c.489 0 .836.104 1.042.313.224.266.333.592.308.92v.361h-.875v-.366c.003-.12-.005-.24-.025-.358a.352.352 0 00-.125-.213.505.505 0 00-.317-.083.533.533 0 00-.333.088.412.412 0 00-.145.235 1.74 1.74 0 00-.034.38v1.866c-.014.18.025.36.112.524.044.055.104.099.175.127s.149.038.226.029a.478.478 0 00.31-.084.375.375 0 00.13-.227c.02-.124.03-.249.027-.374v-.379h.875v.346c.025.342-.082.682-.303.967-.201.228-.544.343-1.047.343s-.884-.122-1.1-.375zM32.137 14.633c-.221-.239-.332-.588-.332-1.05v-1.617c0-.457.11-.802.332-1.037s.591-.351 1.109-.35c.515 0 .882.117 1.103.35.221.235.333.58.333 1.037v1.617c0 .457-.112.807-.337 1.048s-.591.361-1.1.361c-.509 0-.886-.122-1.109-.36zm1.517-.388a.906.906 0 00.105-.479v-1.98a.88.88 0 00-.103-.469c-.044-.057-.106-.101-.179-.129s-.152-.037-.231-.027c-.079-.009-.159 0-.231.028s-.135.072-.18.129a.853.853 0 00-.105.469v1.99a.888.888 0 00.105.479c.051.05.114.091.185.119a.612.612 0 00.635-.119v-.009zM35.735 10.626h.942l.708 2.984.725-2.984h.917l.092 4.308h-.678l-.072-2.994-.699 2.994h-.544l-.725-3.005-.067 3.005h-.685l.085-4.308zM40.176 10.626h1.468c.846 0 1.268.408 1.268 1.223 0 .781-.445 1.171-1.335 1.17h-.5v1.915h-.906l.005-4.308zm1.254 1.841a.7.7 0 00.498-.136.693.693 0 00.13-.486 1.327 1.327 0 00-.044-.391c-.013-.043-.036-.083-.067-.118s-.07-.065-.114-.087a.94.94 0 00-.404-.069h-.352v1.287h.352zM44.218 10.626h.973l.998 4.308h-.844l-.197-.993h-.868l-.203.993h-.857l.998-4.308zm.832 2.815l-.339-1.808-.339 1.808h.678zM46.996 10.626h.634l1.214 2.457v-2.457h.752v4.308h-.603l-1.221-2.565v2.565h-.777l.002-4.308zM51.357 13.291l-1.009-2.659h.85l.616 1.708.578-1.708h.832l-.997 2.659v1.642h-.87v-1.642zM29.892 16.817v.225h-.739v1.75h-.31v-1.75H28.1v-.225h1.792zM32.209 18.793h-.239a.105.105 0 01-.067-.019.102.102 0 01-.04-.045l-.214-.469h-1.026l-.214.469a.119.119 0 01-.033.053.112.112 0 01-.067.019h-.239l.906-1.976h.315l.917 1.968zm-1.5-.734h.855l-.362-.804a1.426 1.426 0 01-.067-.186 4.03 4.03 0 00-.034.105l-.033.083-.359.802zM33.771 18.599a1.018 1.018 0 00.315-.023.961.961 0 00.13-.036c.04-.014.08-.031.121-.048v-.444h-.362c-.009 0-.018-.001-.026-.003s-.016-.007-.023-.012c-.006-.004-.011-.01-.014-.016s-.005-.013-.004-.02v-.152h.703v.757a1.407 1.407 0 01-.609.202 2.591 2.591 0 01-.264.012 1.41 1.41 0 01-.457-.073 1.104 1.104 0 01-.362-.206.956.956 0 01-.234-.313.99.99 0 01-.083-.41.907.907 0 01.316-.726c.103-.089.227-.159.362-.205.155-.05.32-.075.486-.074.084 0 .169.006.252.017a1.21 1.21 0 01.397.128c.056.031.108.065.158.103l-.087.122c-.007.011-.017.021-.029.027s-.027.01-.041.01a.118.118 0 01-.056-.016 1.344 1.344 0 01-.089-.047.727.727 0 00-.121-.053 1.171 1.171 0 00-.167-.044 1.362 1.362 0 00-.23-.017 1.06 1.06 0 00-.35.055.704.704 0 00-.435.402.924.924 0 000 .659.756.756 0 00.446.405c.115.034.237.047.359.039zM36.659 18.567h.989v.225h-1.292v-1.976h.31l-.007 1.75zM38.678 18.792h-.31v-1.976h.31v1.976zM39.83 16.826a.151.151 0 01.047.036l1.324 1.489a.41.41 0 010-.07v-1.472h.27v1.984h-.156a.14.14 0 01-.067-.011.184.184 0 01-.049-.038l-1.323-1.488v1.536h-.259v-1.976h.161c.017 0 .035.003.051.009zM43.753 16.817v.217h-1.098v.652h.89v.21h-.89v.674h1.098v.217h-1.417v-1.971h1.417zM11.286 4.616l13.757 3.372v11.818l-13.757-3.371V4.616zm-.882-1.007V17.01l15.52 3.806V7.417L10.404 3.61z"/><path  d="M18.722 27.036L3.2 23.227V9.828l15.522 3.807v13.401z"/><path d="M10.661 4.465l13.578 3.33-5.774 4.987L4.885 9.45l5.776-4.985zm-.257-.856L3.2 9.828l15.522 3.807 7.202-6.219-15.52-3.807zM19.595 26.282l6.329-5.465-6.329-1.553v7.018z"/></symbol>
<symbol id="close-x" viewBox="0 0 32 32"><path d="M26.667 7.303l-1.97-1.97-7.808 7.808-7.808-7.808-1.97 1.97 7.808 7.808-7.808 7.808 1.97 1.97 7.808-7.808 7.808 7.808 1.97-1.97-7.808-7.808 7.808-7.808z"/></symbol>
<symbol id="user-icon" viewBox="0 0 32 32"><path d="M16.012 16.012c2.948 0 5.337-2.39 5.337-5.337s-2.39-5.337-5.337-5.337v0c-2.948 0-5.337 2.39-5.337 5.337s2.39 5.337 5.337 5.337v0zM16.012 18.681c-3.564 0-10.675 1.788-10.675 5.337v1.334c0 0.733 0.6 1.334 1.334 1.334h18.681c0.733 0 1.334-0.601 1.334-1.334v-1.334c0-3.549-7.113-5.337-10.675-5.337z"></path>
</symbol>
<symbol id="phone-icon" viewBox="0 0 32 32"><path d="M24.901 19.79l-3.27-0.374c-0.090-0.011-0.194-0.018-0.3-0.018-0.708 0-1.348 0.287-1.812 0.751l-2.37 2.37c-3.672-1.895-6.59-4.814-8.434-8.378l-0.051-0.108 2.384-2.379c0.464-0.464 0.751-1.104 0.751-1.812 0-0.106-0.006-0.21-0.019-0.312l0.001 0.012-0.374-3.245c-0.155-1.288-1.241-2.277-2.559-2.277-0.001 0-0.002 0-0.003 0h-2.227c-1.455 0-2.665 1.21-2.576 2.663 0.683 10.995 9.478 19.777 20.46 20.46 1.454 0.089 2.665-1.121 2.665-2.576v-2.227c0-0.004 0-0.008 0-0.012 0-1.309-0.985-2.387-2.255-2.534l-0.012-0.001z"></path>
</symbol>
<symbol id="email-icon" viewBox="0 0 32 32"><path d="M26.687 5.337h-21.35c-1.468 0-2.655 1.201-2.655 2.669l-0.014 16.012c0 1.468 1.201 2.669 2.669 2.669h21.35c1.468 0 2.669-1.201 2.669-2.669v-16.012c0-1.468-1.201-2.669-2.669-2.669zM26.154 11.009l-9.433 5.896c-0.201 0.126-0.446 0.201-0.708 0.201s-0.507-0.075-0.714-0.204l0.006 0.003-9.433-5.896c-0.336-0.201-0.557-0.563-0.557-0.976 0-0.626 0.507-1.133 1.133-1.133 0.233 0 0.449 0.070 0.629 0.19l-0.004-0.003 8.94 5.59 8.94-5.592c0.176-0.118 0.392-0.188 0.625-0.188 0.626 0 1.133 0.507 1.133 1.133 0 0.413-0.221 0.775-0.552 0.973l-0.005 0.003z"></path>
</symbol>
<symbol id="planer-icon" viewBox="0 0 32 32">
<path fill="#fff" style="fill: var(--color1, #fff)" d="M32.009 0l-32.009 18.005 10.23 3.788 15.778-14.791-12.001 16.191 0.009 0.003-0.012-0.003v8.816l5.736-6.693 7.269 2.691 5-28.008z"></path>
</symbol>
<symbol id="check-icon" viewBox="0 0 34 32"><path fill="#fff" style="fill: var(--color1, #fff); stroke: var(--color1, #fff)" stroke="#fff" stroke-linejoin="miter" stroke-linecap="butt" stroke-miterlimit="4" stroke-width="0.4267" d="M8.447 16.538l-0.147-0.141-0.147 0.139-2.058 1.951 0.162 0.156 7.61 7.258 0.147-0.141 16.181-15.436-0.162-0.154-2.030-1.936-0.147 0.141-13.989 13.333-5.42-5.17z"></path>
</symbol>
<symbol id="mobile-close" viewBox="0 0 32 32"><path d="M23.733 10.304L22.229 8.8l-5.963 5.963L10.303 8.8l-1.504 1.504 5.963 5.963-5.963 5.963 1.504 1.504 5.963-5.963 5.963 5.963 1.504-1.504-5.963-5.963 5.963-5.963z"/></symbol>
<symbol id="mobile-open" viewBox="0 0 32 32"><path d="M6.4 11.733V9.6h19.2v2.133H6.4zm0 5.334h19.2v-2.133H6.4v2.133zm0 5.333h19.2v-2.133H6.4V22.4z"/></symbol>
</defs></svg>
